<?xml version="1.0" standalone="no"?>
<!DOCTYPE svg PUBLIC "-//W3C//DTD SVG 20010904//EN"
 "http://www.w3.org/TR/2001/REC-SVG-20010904/DTD/svg10.dtd">
<svg version="1.0" xmlns="http://www.w3.org/2000/svg"
 width="1024.000000pt" height="1024.000000pt" viewBox="0 0 1024.000000 1024.000000"
 preserveAspectRatio="xMidYMid meet">

<g transform="translate(0.000000,1024.000000) scale(0.100000,-0.100000)"
fill="#000000" stroke="none">
<path d="M1280 6460 c0 -5 59 -62 132 -127 73 -65 165 -148 206 -185 l73 -68
455 0 454 0 2 -880 3 -881 95 90 c52 49 177 165 277 258 l181 168 1 623 1 622
666 0 665 0 46 43 c225 207 357 330 361 337 1 3 -812 6 -1808 7 -1068 2 -1810
-1 -1810 -7z"/>
<path d="M8270 6156 l0 -316 -845 0 -845 0 0 310 0 310 -515 0 c-283 0 -515
-3 -515 -6 0 -4 31 -38 68 -78 38 -39 149 -157 248 -261 98 -105 282 -299 408
-433 l229 -242 883 0 884 0 0 -378 0 -377 278 -227 277 -226 3 1111 c1 610 1
1111 0 1113 -2 1 -128 5 -280 9 l-278 7 0 -316z"/>
<path d="M5015 6372 c-49 -48 -151 -144 -225 -212 -74 -69 -173 -161 -220
-205 -190 -179 -592 -550 -990 -915 -457 -419 -714 -660 -708 -665 2 -1 84 17
183 41 99 24 338 80 530 125 l350 81 215 214 215 214 820 0 820 -1 190 -204
c116 -125 197 -204 209 -204 11 -1 177 -26 369 -57 192 -30 357 -54 366 -52
13 2 -55 80 -237 273 -264 280 -937 995 -1166 1240 -72 77 -170 180 -217 230
-47 49 -105 111 -129 138 l-43 47 -121 0 -121 0 -90 -88z m387 -657 c79 -82
168 -176 197 -207 l54 -58 -479 0 -479 0 212 210 211 209 49 3 c26 2 58 1 69
-2 12 -3 87 -72 166 -155z"/>
</g>
</svg>
